<svg xmlns="http://www.w3.org/2000/svg" viewBox="0 0 320 240" role="img" aria-label="Door gasket product image">
  <defs>
    <linearGradient id="bg" x1="0" y1="0" x2="1" y2="1">
      <stop offset="0" stop-color="#f8fafc"/>
      <stop offset="1" stop-color="#e7eef4"/>
    </linearGradient>
    <linearGradient id="gasket" x1="0" y1="0" x2="1" y2="1">
      <stop offset="0" stop-color="#25313b"/>
      <stop offset="0.55" stop-color="#5c6872"/>
      <stop offset="1" stop-color="#17212a"/>
    </linearGradient>
    <filter id="shadow" x="-20%" y="-20%" width="140%" height="140%">
      <feDropShadow dx="0" dy="8" stdDeviation="8" flood-color="#0f1720" flood-opacity=".22"/>
    </filter>
  </defs>
  <rect width="320" height="240" rx="16" fill="url(#bg)"/>
  <g filter="url(#shadow)">
    <path d="M74 75c0-13 11-24 24-24h124c13 0 24 11 24 24v90c0 13-11 24-24 24H98c-13 0-24-11-24-24V75zm33 16v58c0 6 5 11 11 11h84c6 0 11-5 11-11V91c0-6-5-11-11-11h-84c-6 0-11 5-11 11z" fill="url(#gasket)"/>
    <path d="M96 75h128M96 165h128M91 88v70M229 88v70" fill="none" stroke="#9aa7b3" stroke-width="5" stroke-linecap="round" opacity=".65"/>
    <path d="M118 102h84v36h-84z" fill="#111820" opacity=".45"/>
  </g>
  <text x="160" y="218" text-anchor="middle" font-family="Arial, Helvetica, sans-serif" font-size="18" font-weight="700" fill="#516070">Door gasket</text>
</svg>
